<svg width="16" height="16" viewBox="0 0 16 16" fill="none" xmlns="http://www.w3.org/2000/svg">
<path d="M5.95216 12.2648C5.95216 12.2648 5.35629 12.6115 6.37679 12.7285C7.61329 12.8698 8.24516 12.8495 9.60741 12.592C9.60741 12.592 9.96629 12.8164 10.4665 13.0109C7.41166 14.3196 3.55304 12.935 5.95216 12.2648ZM5.57866 10.5566C5.57866 10.5566 4.91016 11.0515 5.93154 11.1573C7.25241 11.2936 8.29529 11.3048 10.1008 10.9573C10.1008 10.9573 10.3499 11.2104 10.7423 11.3486C7.04954 12.4286 2.93654 11.4336 5.57866 10.5566Z" fill="#0074BD"/>
<path d="M8.72519 7.65912C9.47832 8.52599 8.52769 9.30537 8.52769 9.30537C8.52769 9.30537 10.4388 8.31899 9.56132 7.08324C8.74144 5.93137 8.11294 5.35924 11.5157 3.38574C11.5157 3.38587 6.17432 4.71949 8.72519 7.65912Z" fill="#EA2D2E"/>
<path d="M12.7654 13.5289C12.7654 13.5289 13.2066 13.8926 12.2794 14.1737C10.5167 14.7077 4.94118 14.8687 3.39268 14.1951C2.8363 13.9529 3.88005 13.617 4.20843 13.5461C4.5508 13.472 4.7463 13.4855 4.7463 13.4855C4.12718 13.0496 0.744676 14.3417 3.02843 14.7124C9.25605 15.7219 14.3806 14.2577 12.7654 13.5289ZM6.23905 8.78699C6.23905 8.78699 3.4033 9.46062 5.23493 9.70549C6.00843 9.80899 7.54968 9.78524 8.9863 9.66474C10.1601 9.56612 11.3379 9.35549 11.3379 9.35549C11.3379 9.35549 10.9244 9.53287 10.6249 9.73712C7.74468 10.4947 2.18193 10.1419 3.78355 9.36737C5.13755 8.71249 6.23905 8.78699 6.23905 8.78699ZM11.3262 11.6304C14.2538 10.1095 12.9001 8.64787 11.9552 8.84474C11.7242 8.89287 11.6206 8.93474 11.6206 8.93474C11.6206 8.93474 11.7066 8.79987 11.8706 8.74187C13.7397 8.08499 15.1769 10.6797 11.2677 11.7075C11.2677 11.7072 11.3126 11.6666 11.3262 11.6304Z" fill="#0074BD"/>
<path d="M9.5614 0.198242C9.5614 0.198242 11.1824 1.82024 8.02352 4.31362C5.49027 6.31437 7.4459 7.45487 8.02265 8.75849C6.54377 7.42437 5.45902 6.24974 6.18665 5.15662C7.25515 3.55237 10.2153 2.77424 9.5614 0.198242Z" fill="#EA2D2E"/>
<path d="M6.5268 15.7527C9.3363 15.9324 13.6518 15.6527 13.7539 14.3232C13.7539 14.3232 13.5575 14.8272 11.4318 15.2271C9.03355 15.6786 6.07505 15.626 4.32092 15.3364C4.32092 15.3365 4.6803 15.634 6.5268 15.7527Z" fill="#0074BD"/>
</svg>
