<svg width="38" height="39" viewBox="0 0 38 39" fill="none" xmlns="http://www.w3.org/2000/svg">
<path d="M13.5078 38.2969C17.0406 38.2969 19.8906 35.4469 19.8906 31.9141V25.5312H13.5078C9.975 25.5312 7.125 28.3813 7.125 31.9141C7.125 35.4469 9.975 38.2969 13.5078 38.2969Z" fill="#0ACF83"/>
<path d="M7.125 19.1484C7.125 15.6156 9.975 12.7656 13.5078 12.7656H19.8906V25.5312H13.5078C9.975 25.5312 7.125 22.6812 7.125 19.1484Z" fill="#A259FF"/>
<path d="M7.125 6.38281C7.125 2.85 9.975 0 13.5078 0H19.8906V12.7656H13.5078C9.975 12.7656 7.125 9.91562 7.125 6.38281Z" fill="#F24E1E"/>
<path d="M19.8906 0H26.2734C29.8062 0 32.6562 2.85 32.6562 6.38281C32.6562 9.91562 29.8062 12.7656 26.2734 12.7656H19.8906V0Z" fill="#FF7262"/>
<path d="M32.6562 19.1484C32.6562 22.6812 29.8062 25.5312 26.2734 25.5312C22.7406 25.5312 19.8906 22.6812 19.8906 19.1484C19.8906 15.6156 22.7406 12.7656 26.2734 12.7656C29.8062 12.7656 32.6562 15.6156 32.6562 19.1484Z" fill="#1ABCFE"/>
</svg>
